<?xml version="1.0" encoding="utf-8" standalone="no"?>
<!DOCTYPE svg PUBLIC "-//W3C//DTD SVG 1.1//EN"
  "http://www.w3.org/Graphics/SVG/1.1/DTD/svg11.dtd">
<svg xmlns:xlink="http://www.w3.org/1999/xlink" width="460.8pt" height="345.6pt" viewBox="0 0 460.8 345.6" xmlns="http://www.w3.org/2000/svg" version="1.1">
 <metadata>
  <rdf:RDF xmlns:dc="http://purl.org/dc/elements/1.1/" xmlns:cc="http://creativecommons.org/ns#" xmlns:rdf="http://www.w3.org/1999/02/22-rdf-syntax-ns#">
   <cc:Work>
    <dc:type rdf:resource="http://purl.org/dc/dcmitype/StillImage"/>
    <dc:date>2022-10-18T22:15:30.624224</dc:date>
    <dc:format>image/svg+xml</dc:format>
    <dc:creator>
     <cc:Agent>
      <dc:title>Matplotlib v3.5.2, https://matplotlib.org/</dc:title>
     </cc:Agent>
    </dc:creator>
   </cc:Work>
  </rdf:RDF>
 </metadata>
 <defs>
  <style type="text/css">*{stroke-linejoin: round; stroke-linecap: butt}</style>
 </defs>
 <g id="figure_1">
  <g id="patch_1">
   <path d="M 0 345.6 
L 460.8 345.6 
L 460.8 0 
L 0 0 
L 0 345.6 
z
" style="fill: none"/>
  </g>
  <g id="axes_1">
   <g id="patch_2">
    <path d="M 57.6 307.584 
L 414.72 307.584 
L 414.72 41.472 
L 57.6 41.472 
L 57.6 307.584 
z
" style="fill: none"/>
   </g>
   <g id="matplotlib.axis_1">
    <g id="xtick_1">
     <g id="line2d_1">
      <defs>
       <path id="mc03aa7c8aa" d="M 0 0 
L 0 3.5 
" style="stroke: #000000; stroke-width: 0.8"/>
      </defs>
      <g>
       <use xlink:href="#mc03aa7c8aa" x="73.689362" y="307.584" style="stroke: #000000; stroke-width: 0.8"/>
      </g>
     </g>
     <g id="text_1">
      <!-- 0 -->
      <g transform="translate(70.508112 322.182437)scale(0.1 -0.1)">
       <defs>
        <path id="DejaVuSans-30" d="M 2034 4250 
Q 1547 4250 1301 3770 
Q 1056 3291 1056 2328 
Q 1056 1369 1301 889 
Q 1547 409 2034 409 
Q 2525 409 2770 889 
Q 3016 1369 3016 2328 
Q 3016 3291 2770 3770 
Q 2525 4250 2034 4250 
z
M 2034 4750 
Q 2819 4750 3233 4129 
Q 3647 3509 3647 2328 
Q 3647 1150 3233 529 
Q 2819 -91 2034 -91 
Q 1250 -91 836 529 
Q 422 1150 422 2328 
Q 422 3509 836 4129 
Q 1250 4750 2034 4750 
z
" transform="scale(0.015625)"/>
       </defs>
       <use xlink:href="#DejaVuSans-30"/>
      </g>
     </g>
    </g>
    <g id="xtick_2">
     <g id="line2d_2">
      <g>
       <use xlink:href="#mc03aa7c8aa" x="147.80461" y="307.584" style="stroke: #000000; stroke-width: 0.8"/>
      </g>
     </g>
     <g id="text_2">
      <!-- 20 -->
      <g transform="translate(141.44211 322.182437)scale(0.1 -0.1)">
       <defs>
        <path id="DejaVuSans-32" d="M 1228 531 
L 3431 531 
L 3431 0 
L 469 0 
L 469 531 
Q 828 903 1448 1529 
Q 2069 2156 2228 2338 
Q 2531 2678 2651 2914 
Q 2772 3150 2772 3378 
Q 2772 3750 2511 3984 
Q 2250 4219 1831 4219 
Q 1534 4219 1204 4116 
Q 875 4013 500 3803 
L 500 4441 
Q 881 4594 1212 4672 
Q 1544 4750 1819 4750 
Q 2544 4750 2975 4387 
Q 3406 4025 3406 3419 
Q 3406 3131 3298 2873 
Q 3191 2616 2906 2266 
Q 2828 2175 2409 1742 
Q 1991 1309 1228 531 
z
" transform="scale(0.015625)"/>
       </defs>
       <use xlink:href="#DejaVuSans-32"/>
       <use xlink:href="#DejaVuSans-30" x="63.623047"/>
      </g>
     </g>
    </g>
    <g id="xtick_3">
     <g id="line2d_3">
      <g>
       <use xlink:href="#mc03aa7c8aa" x="221.919857" y="307.584" style="stroke: #000000; stroke-width: 0.8"/>
      </g>
     </g>
     <g id="text_3">
      <!-- 40 -->
      <g transform="translate(215.557357 322.182437)scale(0.1 -0.1)">
       <defs>
        <path id="DejaVuSans-34" d="M 2419 4116 
L 825 1625 
L 2419 1625 
L 2419 4116 
z
M 2253 4666 
L 3047 4666 
L 3047 1625 
L 3713 1625 
L 3713 1100 
L 3047 1100 
L 3047 0 
L 2419 0 
L 2419 1100 
L 313 1100 
L 313 1709 
L 2253 4666 
z
" transform="scale(0.015625)"/>
       </defs>
       <use xlink:href="#DejaVuSans-34"/>
       <use xlink:href="#DejaVuSans-30" x="63.623047"/>
      </g>
     </g>
    </g>
    <g id="xtick_4">
     <g id="line2d_4">
      <g>
       <use xlink:href="#mc03aa7c8aa" x="296.035105" y="307.584" style="stroke: #000000; stroke-width: 0.8"/>
      </g>
     </g>
     <g id="text_4">
      <!-- 60 -->
      <g transform="translate(289.672605 322.182437)scale(0.1 -0.1)">
       <defs>
        <path id="DejaVuSans-36" d="M 2113 2584 
Q 1688 2584 1439 2293 
Q 1191 2003 1191 1497 
Q 1191 994 1439 701 
Q 1688 409 2113 409 
Q 2538 409 2786 701 
Q 3034 994 3034 1497 
Q 3034 2003 2786 2293 
Q 2538 2584 2113 2584 
z
M 3366 4563 
L 3366 3988 
Q 3128 4100 2886 4159 
Q 2644 4219 2406 4219 
Q 1781 4219 1451 3797 
Q 1122 3375 1075 2522 
Q 1259 2794 1537 2939 
Q 1816 3084 2150 3084 
Q 2853 3084 3261 2657 
Q 3669 2231 3669 1497 
Q 3669 778 3244 343 
Q 2819 -91 2113 -91 
Q 1303 -91 875 529 
Q 447 1150 447 2328 
Q 447 3434 972 4092 
Q 1497 4750 2381 4750 
Q 2619 4750 2861 4703 
Q 3103 4656 3366 4563 
z
" transform="scale(0.015625)"/>
       </defs>
       <use xlink:href="#DejaVuSans-36"/>
       <use xlink:href="#DejaVuSans-30" x="63.623047"/>
      </g>
     </g>
    </g>
    <g id="xtick_5">
     <g id="line2d_5">
      <g>
       <use xlink:href="#mc03aa7c8aa" x="370.150352" y="307.584" style="stroke: #000000; stroke-width: 0.8"/>
      </g>
     </g>
     <g id="text_5">
      <!-- 80 -->
      <g transform="translate(363.787852 322.182437)scale(0.1 -0.1)">
       <defs>
        <path id="DejaVuSans-38" d="M 2034 2216 
Q 1584 2216 1326 1975 
Q 1069 1734 1069 1313 
Q 1069 891 1326 650 
Q 1584 409 2034 409 
Q 2484 409 2743 651 
Q 3003 894 3003 1313 
Q 3003 1734 2745 1975 
Q 2488 2216 2034 2216 
z
M 1403 2484 
Q 997 2584 770 2862 
Q 544 3141 544 3541 
Q 544 4100 942 4425 
Q 1341 4750 2034 4750 
Q 2731 4750 3128 4425 
Q 3525 4100 3525 3541 
Q 3525 3141 3298 2862 
Q 3072 2584 2669 2484 
Q 3125 2378 3379 2068 
Q 3634 1759 3634 1313 
Q 3634 634 3220 271 
Q 2806 -91 2034 -91 
Q 1263 -91 848 271 
Q 434 634 434 1313 
Q 434 1759 690 2068 
Q 947 2378 1403 2484 
z
M 1172 3481 
Q 1172 3119 1398 2916 
Q 1625 2713 2034 2713 
Q 2441 2713 2670 2916 
Q 2900 3119 2900 3481 
Q 2900 3844 2670 4047 
Q 2441 4250 2034 4250 
Q 1625 4250 1398 4047 
Q 1172 3844 1172 3481 
z
" transform="scale(0.015625)"/>
       </defs>
       <use xlink:href="#DejaVuSans-38"/>
       <use xlink:href="#DejaVuSans-30" x="63.623047"/>
      </g>
     </g>
    </g>
    <g id="text_6">
     <!-- Time -->
     <g transform="translate(223.926406 335.860562)scale(0.1 -0.1)">
      <defs>
       <path id="DejaVuSans-54" d="M -19 4666 
L 3928 4666 
L 3928 4134 
L 2272 4134 
L 2272 0 
L 1638 0 
L 1638 4134 
L -19 4134 
L -19 4666 
z
" transform="scale(0.015625)"/>
       <path id="DejaVuSans-69" d="M 603 3500 
L 1178 3500 
L 1178 0 
L 603 0 
L 603 3500 
z
M 603 4863 
L 1178 4863 
L 1178 4134 
L 603 4134 
L 603 4863 
z
" transform="scale(0.015625)"/>
       <path id="DejaVuSans-6d" d="M 3328 2828 
Q 3544 3216 3844 3400 
Q 4144 3584 4550 3584 
Q 5097 3584 5394 3201 
Q 5691 2819 5691 2113 
L 5691 0 
L 5113 0 
L 5113 2094 
Q 5113 2597 4934 2840 
Q 4756 3084 4391 3084 
Q 3944 3084 3684 2787 
Q 3425 2491 3425 1978 
L 3425 0 
L 2847 0 
L 2847 2094 
Q 2847 2600 2669 2842 
Q 2491 3084 2119 3084 
Q 1678 3084 1418 2786 
Q 1159 2488 1159 1978 
L 1159 0 
L 581 0 
L 581 3500 
L 1159 3500 
L 1159 2956 
Q 1356 3278 1631 3431 
Q 1906 3584 2284 3584 
Q 2666 3584 2933 3390 
Q 3200 3197 3328 2828 
z
" transform="scale(0.015625)"/>
       <path id="DejaVuSans-65" d="M 3597 1894 
L 3597 1613 
L 953 1613 
Q 991 1019 1311 708 
Q 1631 397 2203 397 
Q 2534 397 2845 478 
Q 3156 559 3463 722 
L 3463 178 
Q 3153 47 2828 -22 
Q 2503 -91 2169 -91 
Q 1331 -91 842 396 
Q 353 884 353 1716 
Q 353 2575 817 3079 
Q 1281 3584 2069 3584 
Q 2775 3584 3186 3129 
Q 3597 2675 3597 1894 
z
M 3022 2063 
Q 3016 2534 2758 2815 
Q 2500 3097 2075 3097 
Q 1594 3097 1305 2825 
Q 1016 2553 972 2059 
L 3022 2063 
z
" transform="scale(0.015625)"/>
      </defs>
      <use xlink:href="#DejaVuSans-54"/>
      <use xlink:href="#DejaVuSans-69" x="57.958984"/>
      <use xlink:href="#DejaVuSans-6d" x="85.742188"/>
      <use xlink:href="#DejaVuSans-65" x="183.154297"/>
     </g>
    </g>
   </g>
   <g id="matplotlib.axis_2">
    <g id="ytick_1">
     <g id="line2d_6">
      <defs>
       <path id="ma2350b24b8" d="M 0 0 
L -3.5 0 
" style="stroke: #000000; stroke-width: 0.8"/>
      </defs>
      <g>
       <use xlink:href="#ma2350b24b8" x="57.6" y="291.424744" style="stroke: #000000; stroke-width: 0.8"/>
      </g>
     </g>
     <g id="text_7">
      <!-- 500 -->
      <g transform="translate(31.5125 295.223963)scale(0.1 -0.1)">
       <defs>
        <path id="DejaVuSans-35" d="M 691 4666 
L 3169 4666 
L 3169 4134 
L 1269 4134 
L 1269 2991 
Q 1406 3038 1543 3061 
Q 1681 3084 1819 3084 
Q 2600 3084 3056 2656 
Q 3513 2228 3513 1497 
Q 3513 744 3044 326 
Q 2575 -91 1722 -91 
Q 1428 -91 1123 -41 
Q 819 9 494 109 
L 494 744 
Q 775 591 1075 516 
Q 1375 441 1709 441 
Q 2250 441 2565 725 
Q 2881 1009 2881 1497 
Q 2881 1984 2565 2268 
Q 2250 2553 1709 2553 
Q 1456 2553 1204 2497 
Q 953 2441 691 2322 
L 691 4666 
z
" transform="scale(0.015625)"/>
       </defs>
       <use xlink:href="#DejaVuSans-35"/>
       <use xlink:href="#DejaVuSans-30" x="63.623047"/>
       <use xlink:href="#DejaVuSans-30" x="127.246094"/>
      </g>
     </g>
    </g>
    <g id="ytick_2">
     <g id="line2d_7">
      <g>
       <use xlink:href="#ma2350b24b8" x="57.6" y="260.16893" style="stroke: #000000; stroke-width: 0.8"/>
      </g>
     </g>
     <g id="text_8">
      <!-- 600 -->
      <g transform="translate(31.5125 263.968149)scale(0.1 -0.1)">
       <use xlink:href="#DejaVuSans-36"/>
       <use xlink:href="#DejaVuSans-30" x="63.623047"/>
       <use xlink:href="#DejaVuSans-30" x="127.246094"/>
      </g>
     </g>
    </g>
    <g id="ytick_3">
     <g id="line2d_8">
      <g>
       <use xlink:href="#ma2350b24b8" x="57.6" y="228.913116" style="stroke: #000000; stroke-width: 0.8"/>
      </g>
     </g>
     <g id="text_9">
      <!-- 700 -->
      <g transform="translate(31.5125 232.712335)scale(0.1 -0.1)">
       <defs>
        <path id="DejaVuSans-37" d="M 525 4666 
L 3525 4666 
L 3525 4397 
L 1831 0 
L 1172 0 
L 2766 4134 
L 525 4134 
L 525 4666 
z
" transform="scale(0.015625)"/>
       </defs>
       <use xlink:href="#DejaVuSans-37"/>
       <use xlink:href="#DejaVuSans-30" x="63.623047"/>
       <use xlink:href="#DejaVuSans-30" x="127.246094"/>
      </g>
     </g>
    </g>
    <g id="ytick_4">
     <g id="line2d_9">
      <g>
       <use xlink:href="#ma2350b24b8" x="57.6" y="197.657302" style="stroke: #000000; stroke-width: 0.8"/>
      </g>
     </g>
     <g id="text_10">
      <!-- 800 -->
      <g transform="translate(31.5125 201.456521)scale(0.1 -0.1)">
       <use xlink:href="#DejaVuSans-38"/>
       <use xlink:href="#DejaVuSans-30" x="63.623047"/>
       <use xlink:href="#DejaVuSans-30" x="127.246094"/>
      </g>
     </g>
    </g>
    <g id="ytick_5">
     <g id="line2d_10">
      <g>
       <use xlink:href="#ma2350b24b8" x="57.6" y="166.401488" style="stroke: #000000; stroke-width: 0.8"/>
      </g>
     </g>
     <g id="text_11">
      <!-- 900 -->
      <g transform="translate(31.5125 170.200707)scale(0.1 -0.1)">
       <defs>
        <path id="DejaVuSans-39" d="M 703 97 
L 703 672 
Q 941 559 1184 500 
Q 1428 441 1663 441 
Q 2288 441 2617 861 
Q 2947 1281 2994 2138 
Q 2813 1869 2534 1725 
Q 2256 1581 1919 1581 
Q 1219 1581 811 2004 
Q 403 2428 403 3163 
Q 403 3881 828 4315 
Q 1253 4750 1959 4750 
Q 2769 4750 3195 4129 
Q 3622 3509 3622 2328 
Q 3622 1225 3098 567 
Q 2575 -91 1691 -91 
Q 1453 -91 1209 -44 
Q 966 3 703 97 
z
M 1959 2075 
Q 2384 2075 2632 2365 
Q 2881 2656 2881 3163 
Q 2881 3666 2632 3958 
Q 2384 4250 1959 4250 
Q 1534 4250 1286 3958 
Q 1038 3666 1038 3163 
Q 1038 2656 1286 2365 
Q 1534 2075 1959 2075 
z
" transform="scale(0.015625)"/>
       </defs>
       <use xlink:href="#DejaVuSans-39"/>
       <use xlink:href="#DejaVuSans-30" x="63.623047"/>
       <use xlink:href="#DejaVuSans-30" x="127.246094"/>
      </g>
     </g>
    </g>
    <g id="ytick_6">
     <g id="line2d_11">
      <g>
       <use xlink:href="#ma2350b24b8" x="57.6" y="135.145674" style="stroke: #000000; stroke-width: 0.8"/>
      </g>
     </g>
     <g id="text_12">
      <!-- 1000 -->
      <g transform="translate(25.15 138.944893)scale(0.1 -0.1)">
       <defs>
        <path id="DejaVuSans-31" d="M 794 531 
L 1825 531 
L 1825 4091 
L 703 3866 
L 703 4441 
L 1819 4666 
L 2450 4666 
L 2450 531 
L 3481 531 
L 3481 0 
L 794 0 
L 794 531 
z
" transform="scale(0.015625)"/>
       </defs>
       <use xlink:href="#DejaVuSans-31"/>
       <use xlink:href="#DejaVuSans-30" x="63.623047"/>
       <use xlink:href="#DejaVuSans-30" x="127.246094"/>
       <use xlink:href="#DejaVuSans-30" x="190.869141"/>
      </g>
     </g>
    </g>
    <g id="ytick_7">
     <g id="line2d_12">
      <g>
       <use xlink:href="#ma2350b24b8" x="57.6" y="103.88986" style="stroke: #000000; stroke-width: 0.8"/>
      </g>
     </g>
     <g id="text_13">
      <!-- 1100 -->
      <g transform="translate(25.15 107.689079)scale(0.1 -0.1)">
       <use xlink:href="#DejaVuSans-31"/>
       <use xlink:href="#DejaVuSans-31" x="63.623047"/>
       <use xlink:href="#DejaVuSans-30" x="127.246094"/>
       <use xlink:href="#DejaVuSans-30" x="190.869141"/>
      </g>
     </g>
    </g>
    <g id="ytick_8">
     <g id="line2d_13">
      <g>
       <use xlink:href="#ma2350b24b8" x="57.6" y="72.634047" style="stroke: #000000; stroke-width: 0.8"/>
      </g>
     </g>
     <g id="text_14">
      <!-- 1200 -->
      <g transform="translate(25.15 76.433265)scale(0.1 -0.1)">
       <use xlink:href="#DejaVuSans-31"/>
       <use xlink:href="#DejaVuSans-32" x="63.623047"/>
       <use xlink:href="#DejaVuSans-30" x="127.246094"/>
       <use xlink:href="#DejaVuSans-30" x="190.869141"/>
      </g>
     </g>
    </g>
    <g id="text_15">
     <!-- Y -->
     <g transform="translate(19.070312 177.581906)rotate(-90)scale(0.1 -0.1)">
      <defs>
       <path id="DejaVuSans-59" d="M -13 4666 
L 666 4666 
L 1959 2747 
L 3244 4666 
L 3922 4666 
L 2272 2222 
L 2272 0 
L 1638 0 
L 1638 2222 
L -13 4666 
z
" transform="scale(0.015625)"/>
      </defs>
      <use xlink:href="#DejaVuSans-59"/>
     </g>
    </g>
   </g>
   <g id="line2d_14">
    <path d="M 73.832727 79.197767 
L 74.092501 79.510326 
L 74.290837 79.197767 
L 74.487677 79.197767 
L 74.705982 79.510326 
L 74.891626 79.197767 
L 75.100742 79.510326 
L 75.264618 79.197767 
L 75.440126 79.510326 
L 76.291276 79.510326 
L 76.469927 79.822884 
L 76.692604 79.510326 
L 77.886008 79.510326 
L 78.090036 79.822884 
L 78.449198 79.822884 
L 78.614304 80.135442 
L 78.799401 79.822884 
L 79.305053 79.822884 
L 79.483061 80.135442 
L 81.02748 80.135442 
L 81.244767 80.448 
L 81.407951 80.135442 
L 81.573267 80.135442 
L 81.761965 80.448 
L 83.623995 80.448 
L 83.809473 80.135442 
L 84.020407 80.448 
L 84.417206 80.448 
L 84.763882 79.822884 
L 84.937985 80.135442 
L 85.287171 79.510326 
L 85.45627 79.822884 
L 85.6217 79.510326 
L 85.790105 79.510326 
L 86.192141 78.885209 
L 86.721961 78.885209 
L 86.924378 78.572651 
L 87.454106 78.572651 
L 87.851683 77.947535 
L 88.060477 77.947535 
L 88.247088 77.634977 
L 88.457835 77.634977 
L 88.634355 77.322419 
L 88.839289 77.322419 
L 89.208753 76.697302 
L 89.727299 76.697302 
L 89.947974 76.384744 
L 90.472363 76.384744 
L 90.68547 76.072186 
L 91.03013 76.072186 
L 91.207758 76.384744 
L 91.544341 76.384744 
L 91.710252 76.697302 
L 92.279407 76.697302 
L 92.901522 75.44707 
L 93.815028 70.133581 
L 94.159478 67.008 
L 95.187787 55.755907 
L 95.5315 53.880558 
L 95.693525 53.880558 
L 95.87354 54.193116 
L 96.212601 55.755907 
L 96.549437 58.56893 
L 96.898194 61.381953 
L 97.237123 63.257302 
L 97.405024 63.56986 
L 98.269246 63.56986 
L 98.483967 63.882419 
L 98.656622 63.882419 
L 98.827038 64.194977 
L 100.542783 69.821023 
L 101.098534 70.44614 
L 102.292125 68.258233 
L 102.467229 68.570791 
L 102.645906 68.570791 
L 102.821129 68.883349 
L 103.201979 69.821023 
L 103.379664 70.133581 
L 103.772384 69.508465 
L 104.458109 66.695442 
L 104.9695 64.820093 
L 106.618349 53.568 
L 106.994816 53.568 
L 107.716554 56.693581 
L 108.104244 56.693581 
L 108.279361 56.381023 
L 108.453983 56.381023 
L 108.672967 56.068465 
L 108.839995 56.068465 
L 109.008537 56.381023 
L 109.190101 56.381023 
L 110.15193 59.819163 
L 110.829769 63.882419 
L 111.000082 64.194977 
L 111.358922 65.132651 
L 111.591317 65.445209 
L 111.799468 65.445209 
L 111.972971 65.757767 
L 112.152376 65.757767 
L 113.053317 67.008 
L 114.311441 67.008 
L 114.650489 66.382884 
L 115.15451 64.194977 
L 116.358901 56.381023 
L 116.523787 56.068465 
L 116.866582 56.068465 
L 117.042363 56.381023 
L 117.548583 57.943814 
L 117.946433 58.56893 
L 118.532367 57.631256 
L 118.761398 57.318698 
L 120.218261 57.318698 
L 120.394474 57.00614 
L 120.95949 57.00614 
L 122.49991 62.319628 
L 122.659821 62.632186 
L 122.859112 62.319628 
L 123.062566 62.319628 
L 123.234976 61.694512 
L 123.407344 61.694512 
L 124.144626 60.444279 
L 124.33735 60.444279 
L 124.544773 60.131721 
L 124.884019 60.131721 
L 125.454754 61.069395 
L 125.80632 62.319628 
L 126.419806 63.257302 
L 126.994471 63.257302 
L 127.561133 62.319628 
L 128.096454 62.319628 
L 128.296873 62.632186 
L 129.054645 62.632186 
L 129.218234 62.319628 
L 129.567939 62.319628 
L 130.183299 61.381953 
L 130.362827 60.756837 
L 131.495033 59.194047 
L 133.766538 63.257302 
L 133.938293 63.257302 
L 134.125879 63.56986 
L 134.325635 63.56986 
L 134.502044 63.882419 
L 134.681177 63.882419 
L 134.857835 64.194977 
L 135.078319 64.194977 
L 135.248651 64.507535 
L 135.416914 65.132651 
L 135.628383 65.445209 
L 135.82112 66.070326 
L 136.727603 71.696372 
L 137.075584 76.072186 
L 138.489386 104.514977 
L 140.088067 145.460093 
L 141.68568 186.717767 
L 142.817999 212.972651 
L 146.232512 277.04707 
L 146.590273 281.735442 
L 147.390713 287.361488 
L 147.763766 288.611721 
L 147.945867 288.611721 
L 148.126376 288.299163 
L 148.68723 285.48614 
L 149.080732 282.360558 
L 149.432932 277.984744 
L 150.160429 266.420093 
L 151.205444 247.041488 
L 153.054567 206.721488 
L 154.203933 175.465674 
L 155.570981 133.582884 
L 157.796249 70.44614 
L 158.430054 59.194047 
L 158.769142 55.755907 
L 158.930551 54.818233 
L 159.115351 54.505674 
L 159.278942 54.505674 
L 159.673511 55.755907 
L 159.858379 57.00614 
L 160.478581 58.56893 
L 160.653472 58.56893 
L 160.870361 58.256372 
L 161.954238 54.505674 
L 162.363546 53.880558 
L 162.576138 53.880558 
L 162.745934 54.193116 
L 162.924914 54.193116 
L 163.097447 54.505674 
L 163.60854 54.505674 
L 163.773123 54.193116 
L 164.122207 54.193116 
L 164.30969 53.880558 
L 164.510863 53.880558 
L 164.689066 53.568 
L 164.859317 53.568 
L 165.038332 53.880558 
L 165.254476 53.880558 
L 165.607994 54.505674 
L 165.850609 54.505674 
L 166.072591 54.818233 
L 166.761611 54.818233 
L 166.984152 54.505674 
L 167.436305 54.505674 
L 167.665775 54.193116 
L 167.89207 54.193116 
L 168.127476 53.880558 
L 168.328701 54.193116 
L 168.515293 54.193116 
L 168.904481 54.818233 
L 169.088286 55.443349 
L 169.472849 58.256372 
L 169.990091 66.382884 
L 171.47365 101.389395 
L 173.056728 147.335442 
L 173.688618 167.026605 
L 175.511737 214.535442 
L 177.668171 258.918698 
L 178.417046 269.233116 
L 178.985928 273.296372 
L 179.405886 273.921488 
L 179.606113 273.60893 
L 180.126503 270.483349 
L 181.033234 259.231256 
L 183.847408 203.908465 
L 189.472991 73.884279 
L 190.023447 64.194977 
L 190.416319 60.131721 
L 190.632313 59.194047 
L 190.849246 58.881488 
L 191.056999 58.881488 
L 191.222426 59.194047 
L 191.613192 61.381953 
L 192.024255 64.507535 
L 192.42954 67.008 
L 192.648765 67.633116 
L 192.827059 67.633116 
L 193.203514 67.008 
L 193.398929 66.382884 
L 193.612135 66.382884 
L 194.029853 65.757767 
L 194.487531 66.382884 
L 195.37421 68.883349 
L 195.542929 69.195907 
L 195.764721 68.883349 
L 195.963348 68.883349 
L 196.343582 68.258233 
L 196.688189 68.258233 
L 196.881184 68.570791 
L 197.42346 68.570791 
L 197.601631 68.883349 
L 197.823553 68.883349 
L 198.003734 69.195907 
L 199.980711 69.195907 
L 200.154324 68.883349 
L 200.734738 68.883349 
L 201.13097 68.258233 
L 201.349926 68.258233 
L 202.263445 66.695442 
L 202.629612 65.757767 
L 203.000883 65.132651 
L 203.351946 65.132651 
L 203.749361 66.382884 
L 204.262405 70.758698 
L 206.247101 102.952186 
L 206.871664 115.141953 
L 208.472245 144.522419 
L 211.894629 213.910326 
L 215.084563 271.108465 
L 216.213288 281.735442 
L 216.569005 283.298233 
L 216.778796 283.610791 
L 217.184092 282.985674 
L 217.369689 282.360558 
L 217.925733 278.60986 
L 218.666892 269.858233 
L 219.404059 257.981023 
L 219.826397 250.792186 
L 220.772827 231.101023 
L 221.336593 218.598698 
L 222.709365 190.781023 
L 223.614087 170.152186 
L 224.717831 142.959628 
L 226.704213 94.513116 
L 227.953264 67.945674 
L 228.740994 59.506605 
L 228.924119 58.881488 
L 229.157598 58.881488 
L 229.365246 59.194047 
L 229.55363 59.819163 
L 229.9894 62.632186 
L 230.521145 67.633116 
L 230.684728 68.258233 
L 230.855671 68.258233 
L 231.199382 66.695442 
L 231.412264 65.445209 
L 231.601339 65.132651 
L 231.842121 64.194977 
L 232.514846 63.257302 
L 232.913371 63.257302 
L 233.128286 63.56986 
L 233.348539 64.194977 
L 233.933166 64.194977 
L 234.271428 63.56986 
L 236.109712 63.56986 
L 236.328102 63.882419 
L 237.182107 63.882419 
L 237.355337 64.194977 
L 238.028608 64.194977 
L 238.205015 64.507535 
L 238.559674 64.507535 
L 238.777552 64.820093 
L 239.348261 64.820093 
L 239.757927 65.445209 
L 239.959467 65.445209 
L 240.534564 67.633116 
L 241.157036 73.259163 
L 242.184916 92.637767 
L 242.87455 108.578233 
L 246.05964 185.467535 
L 248.336875 232.976372 
L 250.226731 265.16986 
L 251.254915 277.04707 
L 251.834057 280.797767 
L 252.040678 281.735442 
L 252.223993 282.048 
L 252.622354 282.048 
L 253.238971 279.547535 
L 254.209814 270.170791 
L 254.832906 261.731721 
L 256.650179 227.975442 
L 257.061828 219.223814 
L 258.415923 190.155907 
L 260.473109 141.084279 
L 263.238191 75.759628 
L 263.521253 72.00893 
L 263.941202 64.507535 
L 264.351087 60.756837 
L 264.52571 59.506605 
L 264.751229 59.194047 
L 264.979103 59.194047 
L 265.423303 60.444279 
L 266.742262 69.821023 
L 266.963539 69.821023 
L 267.153903 69.508465 
L 267.613573 67.945674 
L 267.828624 67.320558 
L 268.049191 67.320558 
L 268.223803 67.008 
L 269.066743 68.258233 
L 269.659812 70.133581 
L 269.850967 70.44614 
L 270.49501 70.44614 
L 270.667499 70.133581 
L 270.845317 70.44614 
L 271.864049 69.195907 
L 272.208506 69.195907 
L 272.394151 68.883349 
L 273.402277 66.070326 
L 273.812573 65.445209 
L 273.990417 65.445209 
L 274.211732 65.757767 
L 274.430968 65.757767 
L 274.891805 66.382884 
L 275.910715 66.382884 
L 276.087158 66.070326 
L 276.494731 66.070326 
L 276.71698 66.382884 
L 277.109668 66.382884 
L 277.300543 66.695442 
L 277.761493 66.070326 
L 278.457582 66.070326 
L 278.671504 65.757767 
L 279.977946 62.319628 
L 280.192944 62.00707 
L 282.30872 62.00707 
L 282.531122 62.319628 
L 283.15209 62.319628 
L 283.389287 62.00707 
L 283.596985 62.00707 
L 283.769198 61.694512 
L 284.125065 61.694512 
L 284.347269 61.381953 
L 284.973486 61.381953 
L 285.423792 62.319628 
L 286.044293 67.008 
L 286.477435 72.00893 
L 287.377839 88.261953 
L 288.11926 104.514977 
L 292.643088 222.349395 
L 294.202529 251.72986 
L 295.659173 277.672186 
L 296.090622 282.985674 
L 296.777183 288.924279 
L 297.458627 292.04986 
L 297.689664 292.362419 
L 298.13411 292.362419 
L 298.704394 288.611721 
L 299.129941 284.548465 
L 300.180806 268.608 
L 300.868971 255.480558 
L 302.252982 224.84986 
L 304.278317 171.08986 
L 306.573321 109.828465 
L 307.0184 99.201488 
L 308.811871 74.821953 
L 309.490301 71.383814 
L 309.736559 71.383814 
L 309.986453 71.696372 
L 311.365391 76.697302 
L 311.600664 77.00986 
L 311.8123 77.00986 
L 312.20855 76.384744 
L 312.444106 76.384744 
L 312.673594 75.759628 
L 313.47972 75.759628 
L 314.263369 77.00986 
L 314.43723 77.634977 
L 314.665352 77.947535 
L 315.081993 78.885209 
L 315.301094 79.197767 
L 315.521694 79.197767 
L 315.989818 79.822884 
L 316.199511 79.822884 
L 316.840908 80.760558 
L 317.055425 80.760558 
L 317.273431 81.073116 
L 317.898681 81.073116 
L 318.084324 81.385674 
L 318.697155 81.385674 
L 318.934159 81.698233 
L 319.17113 81.698233 
L 319.397209 82.010791 
L 320.189094 82.010791 
L 320.400367 82.323349 
L 320.744725 82.323349 
L 320.937601 82.635907 
L 321.139335 82.635907 
L 321.314451 82.948465 
L 321.666104 82.948465 
L 322.058613 83.573581 
L 322.67549 86.074047 
L 323.362492 91.074977 
L 323.759328 96.388465 
L 325.321238 129.20707 
L 327.198072 174.840558 
L 329.00511 218.598698 
L 330.381369 247.354047 
L 332.644221 287.04893 
L 333.068503 291.112186 
L 333.667166 294.862884 
L 333.856484 295.488 
L 334.235429 295.488 
L 334.642635 293.925209 
L 335.254761 289.236837 
L 335.65308 284.548465 
L 337.254015 257.981023 
L 338.108202 239.852651 
L 339.705003 202.658233 
L 341.067227 166.08893 
L 343.11836 105.452651 
L 344.209741 78.260093 
L 344.609596 71.071256 
L 345.011728 66.695442 
L 345.400756 65.445209 
L 345.663596 65.757767 
L 345.915408 66.695442 
L 346.38411 70.133581 
L 346.992766 76.384744 
L 347.424704 80.448 
L 347.634953 81.385674 
L 347.841247 81.698233 
L 348.193184 78.572651 
L 348.994055 72.321488 
L 349.219399 72.00893 
L 349.618556 72.00893 
L 349.834981 72.321488 
L 350.644633 74.821953 
L 350.890735 74.821953 
L 351.094283 74.509395 
L 351.489481 72.946605 
L 351.887572 71.383814 
L 352.232613 70.44614 
L 352.41396 70.133581 
L 352.853025 70.758698 
L 353.036737 70.758698 
L 353.605479 71.696372 
L 353.827601 71.696372 
L 354.814033 70.133581 
L 355.024581 70.133581 
L 355.250211 70.44614 
L 355.474993 70.44614 
L 355.665539 70.758698 
L 356.045818 71.696372 
L 356.2864 72.00893 
L 356.903697 72.00893 
L 357.125817 71.696372 
L 358.056594 71.696372 
L 358.495216 72.321488 
L 358.960991 72.321488 
L 359.521753 72.946605 
L 359.921169 72.946605 
L 360.318543 73.571721 
L 360.494546 73.571721 
L 362.602481 76.384744 
L 362.821757 76.384744 
L 363.219357 77.00986 
L 363.395833 77.00986 
L 363.622436 77.322419 
L 364.018733 77.322419 
L 364.199888 77.634977 
L 364.426852 77.634977 
L 364.891311 77.00986 
L 365.106164 77.00986 
L 365.513918 76.072186 
L 365.726821 76.072186 
L 365.904953 75.44707 
L 366.13361 75.44707 
L 366.934844 74.509395 
L 367.120488 74.509395 
L 367.554051 73.884279 
L 367.722577 73.884279 
L 367.913215 73.571721 
L 368.14384 73.571721 
L 368.782721 72.634047 
L 368.980605 72.634047 
L 369.155217 72.321488 
L 369.37076 72.321488 
L 369.775201 71.696372 
L 369.956981 71.696372 
L 370.180569 71.383814 
L 370.870464 71.383814 
L 371.297161 70.758698 
L 371.482156 70.758698 
L 371.88213 70.133581 
L 372.295189 70.133581 
L 372.535361 69.821023 
L 372.730192 69.821023 
L 373.301388 68.883349 
L 373.92728 68.883349 
L 374.103603 68.570791 
L 374.327172 68.570791 
L 374.515077 68.258233 
L 374.733919 68.570791 
L 374.96689 68.570791 
L 375.183795 68.258233 
L 375.375801 68.570791 
L 377.163148 68.570791 
L 377.356262 68.883349 
L 377.601633 68.883349 
L 377.819719 69.195907 
L 378.283333 69.195907 
L 378.505533 69.508465 
L 378.98942 69.508465 
L 379.42334 70.133581 
L 379.648343 70.133581 
L 380.481962 71.071256 
L 380.674046 71.071256 
L 380.890879 71.383814 
L 381.057359 71.383814 
L 381.283716 71.696372 
L 381.517116 71.696372 
L 381.689209 72.00893 
L 381.914279 71.696372 
L 382.139353 71.696372 
L 382.392142 72.00893 
L 382.625756 71.696372 
L 382.876144 71.696372 
L 383.076478 71.383814 
L 383.57459 71.383814 
L 383.806179 71.071256 
L 384.273043 71.071256 
L 384.514145 70.758698 
L 386.692165 70.758698 
L 386.922959 71.071256 
L 387.375892 71.071256 
L 387.599986 70.758698 
L 388.407678 70.758698 
L 388.595164 70.44614 
L 388.791319 70.44614 
L 389.547518 69.195907 
L 389.780401 68.570791 
L 390.006553 68.570791 
L 390.247165 68.258233 
L 390.697624 68.258233 
L 390.931057 67.945674 
L 391.935546 67.945674 
L 392.493702 67.008 
L 393.41759 64.194977 
L 394.961475 59.819163 
L 395.768982 58.56893 
L 395.975086 58.56893 
L 396.192807 58.256372 
L 396.760794 58.256372 
L 397.165276 58.881488 
L 397.34908 58.881488 
L 397.733252 59.506605 
L 397.911169 60.444279 
L 398.089454 60.756837 
L 398.487273 62.00707 
L 398.487273 62.00707 
" clip-path="url(#p1a43f049d8)" style="fill: none; stroke: #1f77b4; stroke-width: 1.5; stroke-linecap: square"/>
   </g>
   <g id="patch_3">
    <path d="M 57.6 307.584 
L 57.6 41.472 
" style="fill: none; stroke: #000000; stroke-width: 0.8; stroke-linejoin: miter; stroke-linecap: square"/>
   </g>
   <g id="patch_4">
    <path d="M 414.72 307.584 
L 414.72 41.472 
" style="fill: none; stroke: #000000; stroke-width: 0.8; stroke-linejoin: miter; stroke-linecap: square"/>
   </g>
   <g id="patch_5">
    <path d="M 57.6 307.584 
L 414.72 307.584 
" style="fill: none; stroke: #000000; stroke-width: 0.8; stroke-linejoin: miter; stroke-linecap: square"/>
   </g>
   <g id="patch_6">
    <path d="M 57.6 41.472 
L 414.72 41.472 
" style="fill: none; stroke: #000000; stroke-width: 0.8; stroke-linejoin: miter; stroke-linecap: square"/>
   </g>
   <g id="text_16">
    <!-- Y Position over Time -->
    <g transform="translate(175.356562 35.472)scale(0.12 -0.12)">
     <defs>
      <path id="DejaVuSans-20" transform="scale(0.015625)"/>
      <path id="DejaVuSans-50" d="M 1259 4147 
L 1259 2394 
L 2053 2394 
Q 2494 2394 2734 2622 
Q 2975 2850 2975 3272 
Q 2975 3691 2734 3919 
Q 2494 4147 2053 4147 
L 1259 4147 
z
M 628 4666 
L 2053 4666 
Q 2838 4666 3239 4311 
Q 3641 3956 3641 3272 
Q 3641 2581 3239 2228 
Q 2838 1875 2053 1875 
L 1259 1875 
L 1259 0 
L 628 0 
L 628 4666 
z
" transform="scale(0.015625)"/>
      <path id="DejaVuSans-6f" d="M 1959 3097 
Q 1497 3097 1228 2736 
Q 959 2375 959 1747 
Q 959 1119 1226 758 
Q 1494 397 1959 397 
Q 2419 397 2687 759 
Q 2956 1122 2956 1747 
Q 2956 2369 2687 2733 
Q 2419 3097 1959 3097 
z
M 1959 3584 
Q 2709 3584 3137 3096 
Q 3566 2609 3566 1747 
Q 3566 888 3137 398 
Q 2709 -91 1959 -91 
Q 1206 -91 779 398 
Q 353 888 353 1747 
Q 353 2609 779 3096 
Q 1206 3584 1959 3584 
z
" transform="scale(0.015625)"/>
      <path id="DejaVuSans-73" d="M 2834 3397 
L 2834 2853 
Q 2591 2978 2328 3040 
Q 2066 3103 1784 3103 
Q 1356 3103 1142 2972 
Q 928 2841 928 2578 
Q 928 2378 1081 2264 
Q 1234 2150 1697 2047 
L 1894 2003 
Q 2506 1872 2764 1633 
Q 3022 1394 3022 966 
Q 3022 478 2636 193 
Q 2250 -91 1575 -91 
Q 1294 -91 989 -36 
Q 684 19 347 128 
L 347 722 
Q 666 556 975 473 
Q 1284 391 1588 391 
Q 1994 391 2212 530 
Q 2431 669 2431 922 
Q 2431 1156 2273 1281 
Q 2116 1406 1581 1522 
L 1381 1569 
Q 847 1681 609 1914 
Q 372 2147 372 2553 
Q 372 3047 722 3315 
Q 1072 3584 1716 3584 
Q 2034 3584 2315 3537 
Q 2597 3491 2834 3397 
z
" transform="scale(0.015625)"/>
      <path id="DejaVuSans-74" d="M 1172 4494 
L 1172 3500 
L 2356 3500 
L 2356 3053 
L 1172 3053 
L 1172 1153 
Q 1172 725 1289 603 
Q 1406 481 1766 481 
L 2356 481 
L 2356 0 
L 1766 0 
Q 1100 0 847 248 
Q 594 497 594 1153 
L 594 3053 
L 172 3053 
L 172 3500 
L 594 3500 
L 594 4494 
L 1172 4494 
z
" transform="scale(0.015625)"/>
      <path id="DejaVuSans-6e" d="M 3513 2113 
L 3513 0 
L 2938 0 
L 2938 2094 
Q 2938 2591 2744 2837 
Q 2550 3084 2163 3084 
Q 1697 3084 1428 2787 
Q 1159 2491 1159 1978 
L 1159 0 
L 581 0 
L 581 3500 
L 1159 3500 
L 1159 2956 
Q 1366 3272 1645 3428 
Q 1925 3584 2291 3584 
Q 2894 3584 3203 3211 
Q 3513 2838 3513 2113 
z
" transform="scale(0.015625)"/>
      <path id="DejaVuSans-76" d="M 191 3500 
L 800 3500 
L 1894 563 
L 2988 3500 
L 3597 3500 
L 2284 0 
L 1503 0 
L 191 3500 
z
" transform="scale(0.015625)"/>
      <path id="DejaVuSans-72" d="M 2631 2963 
Q 2534 3019 2420 3045 
Q 2306 3072 2169 3072 
Q 1681 3072 1420 2755 
Q 1159 2438 1159 1844 
L 1159 0 
L 581 0 
L 581 3500 
L 1159 3500 
L 1159 2956 
Q 1341 3275 1631 3429 
Q 1922 3584 2338 3584 
Q 2397 3584 2469 3576 
Q 2541 3569 2628 3553 
L 2631 2963 
z
" transform="scale(0.015625)"/>
     </defs>
     <use xlink:href="#DejaVuSans-59"/>
     <use xlink:href="#DejaVuSans-20" x="61.083984"/>
     <use xlink:href="#DejaVuSans-50" x="92.871094"/>
     <use xlink:href="#DejaVuSans-6f" x="149.548828"/>
     <use xlink:href="#DejaVuSans-73" x="210.730469"/>
     <use xlink:href="#DejaVuSans-69" x="262.830078"/>
     <use xlink:href="#DejaVuSans-74" x="290.613281"/>
     <use xlink:href="#DejaVuSans-69" x="329.822266"/>
     <use xlink:href="#DejaVuSans-6f" x="357.605469"/>
     <use xlink:href="#DejaVuSans-6e" x="418.787109"/>
     <use xlink:href="#DejaVuSans-20" x="482.166016"/>
     <use xlink:href="#DejaVuSans-6f" x="513.953125"/>
     <use xlink:href="#DejaVuSans-76" x="575.134766"/>
     <use xlink:href="#DejaVuSans-65" x="634.314453"/>
     <use xlink:href="#DejaVuSans-72" x="695.837891"/>
     <use xlink:href="#DejaVuSans-20" x="736.951172"/>
     <use xlink:href="#DejaVuSans-54" x="768.738281"/>
     <use xlink:href="#DejaVuSans-69" x="826.697266"/>
     <use xlink:href="#DejaVuSans-6d" x="854.480469"/>
     <use xlink:href="#DejaVuSans-65" x="951.892578"/>
    </g>
   </g>
  </g>
 </g>
 <defs>
  <clipPath id="p1a43f049d8">
   <rect x="57.6" y="41.472" width="357.12" height="266.112"/>
  </clipPath>
 </defs>
</svg>
